# xmcd CD database file
#
# Track frame offsets:
#	150
#	8783
#	25437
#	45152
#	55914
#	69983
#	81681
#	94561
#	110321
#	125264
#	141249
#
# Disc length: 2050 seconds
#
# Revision: 0
# Processed by: cddbd v1.5.2PL0 Copyright (c) Steve Scherf et al.
# Submitted via: CDex 1.77
#
DISCID=8a08000b
DTITLE=Frank and Woody Show - Wrapped Up In The Fun Of It
DYEAR=1979
DGENRE=Country
TTITLE0=Sometimes I Think
TTITLE1=Windmill
TTITLE2=Wrapped Up In The Fun Of It
TTITLE3=One Less Jogger On The Road
TTITLE4=Forever
TTITLE5=If I Ever Get Rich
TTITLE6=Your Time's Comin'
TTITLE7=Singin' In The Streets
TTITLE8=Send The Fool Away
TTITLE9=Loose On Tucson
TTITLE10=You Really Ain't Good Lookin'
EXTD=YEAR: 1979
EXTT0=
EXTT1=
EXTT2=
EXTT3=
EXTT4=
EXTT5=
EXTT6=
EXTT7=
EXTT8=
EXTT9=
EXTT10=
PLAYORDER=
